<?xml version="1.0" encoding="UTF-8" standalone="no"?>
<!-- Created with Inkscape (http://www.inkscape.org/) -->

<svg
   xmlns:dc="http://purl.org/dc/elements/1.1/"
   xmlns:cc="http://creativecommons.org/ns#"
   xmlns:rdf="http://www.w3.org/1999/02/22-rdf-syntax-ns#"
   xmlns:svg="http://www.w3.org/2000/svg"
   xmlns="http://www.w3.org/2000/svg"
   xmlns:sodipodi="http://sodipodi.sourceforge.net/DTD/sodipodi-0.dtd"
   xmlns:inkscape="http://www.inkscape.org/namespaces/inkscape"
   version="1.1"
   id="svg2"
   width="820"
   height="520"
   viewBox="0 0 820 520"
   sodipodi:docname="Algeria_socialist.svg"
   inkscape:version="0.92.3 (2405546, 2018-03-11)">
  <metadata
     id="metadata8">
    <rdf:RDF>
      <cc:Work
         rdf:about="">
        <dc:format>image/svg+xml</dc:format>
        <dc:type
           rdf:resource="http://purl.org/dc/dcmitype/StillImage" />
        <dc:title></dc:title>
      </cc:Work>
    </rdf:RDF>
  </metadata>
  <defs
     id="defs6">
    <filter
       inkscape:label="Sharpen"
       inkscape:menu="Image Effects"
       inkscape:menu-tooltip="Sharpen edges and boundaries within the object, force=0.15"
       style="color-interpolation-filters:sRGB"
       id="filter1016">
      <feConvolveMatrix
         order="3 3"
         kernelMatrix="0 -0.15 0 -0.15 1.6 -0.15 0 -0.15 0"
         divisor="1"
         in="SourceGraphic"
         targetX="1"
         targetY="1"
         id="feConvolveMatrix1014" />
    </filter>
  </defs>
  <sodipodi:namedview
     pagecolor="#ffffff"
     bordercolor="#666666"
     borderopacity="1"
     objecttolerance="10"
     gridtolerance="10"
     guidetolerance="10"
     inkscape:pageopacity="0"
     inkscape:pageshadow="2"
     inkscape:window-width="2560"
     inkscape:window-height="1016"
     id="namedview4"
     showgrid="false"
     showguides="false"
     inkscape:zoom="0.81175861"
     inkscape:cx="279.11848"
     inkscape:cy="228.25234"
     inkscape:window-x="0"
     inkscape:window-y="27"
     inkscape:window-maximized="1"
     inkscape:current-layer="svg2" />
  <g
     style="display:inline;opacity:1"
     id="g873"
     transform="scale(0.91111111,0.86666667)"
     inkscape:export-xdpi="9.6000004"
     inkscape:export-ydpi="9.6000004">
    <rect
       y="0"
       x="0"
       height="600"
       width="900"
       id="rect1224-0"
       style="display:inline;opacity:1;vector-effect:none;fill:#ffffff;fill-opacity:1;stroke:none;stroke-width:5.63881016;stroke-linecap:butt;stroke-linejoin:miter;stroke-miterlimit:4;stroke-dasharray:none;stroke-dashoffset:0;stroke-opacity:1" />
    <rect
       y="-3.1659317e-07"
       x="0"
       height="600"
       width="450"
       id="rect1224"
       style="opacity:1;vector-effect:none;fill:#006233;fill-opacity:1;stroke:none;stroke-width:3.98724079;stroke-linecap:butt;stroke-linejoin:miter;stroke-miterlimit:4;stroke-dasharray:none;stroke-dashoffset:0;stroke-opacity:1" />
  </g>
  <g
     style="display:inline"
     id="g137"
     transform="matrix(2.598619,0,0,2.598619,-138.30215,-953.5881)"
     inkscape:export-xdpi="9.6000004"
     inkscape:export-ydpi="9.6000004">
    <path
       inkscape:connector-curvature="0"
       id="path1109"
       d="M 139.75227,452.13151 H 193.1862 L 210.16826,473.125 Z"
       style="fill:#8f0b23;fill-opacity:1;stroke:none;stroke-width:0.44969127px;stroke-linecap:butt;stroke-linejoin:miter;stroke-opacity:1" />
    <path
       inkscape:connector-curvature="0"
       id="path1109-5"
       d="M 282.03493,452.13151 H 228.60101 L 211.61894,473.125 Z"
       style="display:inline;fill:#d21034;fill-opacity:1;stroke:none;stroke-width:0.44969127px;stroke-linecap:butt;stroke-linejoin:miter;stroke-opacity:1" />
    <path
       inkscape:connector-curvature="0"
       id="path1126"
       d="m 210.99751,405.27081 v 68.33385 L 193.1862,452.13151 Z"
       style="fill:#d21034;fill-opacity:1;stroke:none;stroke-width:0.44969127px;stroke-linecap:butt;stroke-linejoin:miter;stroke-opacity:1" />
    <path
       inkscape:connector-curvature="0"
       id="path1126-6"
       d="m 210.91953,405.27081 v 68.33385 l 17.81131,-21.47315 z"
       style="display:inline;fill:#8f0b23;fill-opacity:1;stroke:none;stroke-width:0.44969127px;stroke-linecap:butt;stroke-linejoin:miter;stroke-opacity:1" />
    <path
       inkscape:connector-curvature="0"
       id="path1173"
       d="m 139.75227,452.13151 41.55973,30.32164 29.60753,-8.84849 z"
       style="fill:#d21034;fill-opacity:1;stroke:none;stroke-width:0.44969127px;stroke-linecap:butt;stroke-linejoin:miter;stroke-opacity:1" />
    <path
       inkscape:connector-curvature="0"
       id="path1175"
       d="m 181.312,482.45315 -14.84276,46.8607 44.52827,-55.70919 z"
       style="fill:#8f0b23;fill-opacity:1;stroke:none;stroke-width:0.44969127px;stroke-linecap:butt;stroke-linejoin:miter;stroke-opacity:1" />
    <path
       inkscape:connector-curvature="0"
       id="path1175-1"
       d="m 240.95476,482.45315 14.84275,46.8607 -44.52827,-55.70919 z"
       style="display:inline;fill:#d21034;fill-opacity:1;stroke:none;stroke-width:0.44969127px;stroke-linecap:butt;stroke-linejoin:miter;stroke-opacity:1" />
    <path
       inkscape:connector-curvature="0"
       id="path1173-2"
       d="m 282.7862,452.13151 -41.55972,30.32164 -29.60754,-8.84849 z"
       style="display:inline;fill:#8f0b23;fill-opacity:1;stroke:none;stroke-width:0.44969127px;stroke-linecap:butt;stroke-linejoin:miter;stroke-opacity:1" />
    <path
       inkscape:connector-curvature="0"
       id="path1207"
       d="m 210.99751,501.74873 -44.52827,27.56512 44.52827,-55.70919 z"
       style="fill:#d21034;fill-opacity:1;stroke:none;stroke-width:0.44969127px;stroke-linecap:butt;stroke-linejoin:miter;stroke-opacity:1" />
    <path
       inkscape:connector-curvature="0"
       id="path1207-7"
       d="M 211.176,501.74873 255.70426,529.31385 211.176,473.60466 Z"
       style="display:inline;fill:#8f0b23;fill-opacity:1;stroke:none;stroke-width:0.44969127px;stroke-linecap:butt;stroke-linejoin:miter;stroke-opacity:1" />
    <g
       transform="matrix(0.46666667,0,0,0.43333333,0,340)"
       style="stroke:#fdd600;stroke-opacity:1"
       id="g1107">
      <path
         id="path1045"
         d="m 452.13753,150.62495 38.16709,108.14008 h 114.50126 l -89.05654,69.973 31.80591,108.14008 -95.41772,-63.61182 -95.41772,63.61182 31.80591,-108.14008 -89.05655,-69.973 h 114.50127 z"
         inkscape:connector-curvature="0"
         style="fill:none;stroke:#fdd600;stroke-width:4;stroke-miterlimit:4;stroke-dasharray:none;stroke-opacity:1" />
      <g
         id="g1098"
         style="stroke:#fdd600;stroke-width:4;stroke-miterlimit:4;stroke-dasharray:none;stroke-opacity:1">
        <path
           inkscape:connector-curvature="0"
           id="path1075"
           d="m 604.80588,258.76503 -216.28016,69.973"
           style="fill:none;stroke:#fdd600;stroke-width:4;stroke-linecap:butt;stroke-linejoin:miter;stroke-miterlimit:4;stroke-dasharray:none;stroke-opacity:1" />
        <path
           inkscape:connector-curvature="0"
           id="path1073"
           d="m 299.46917,258.76503 216.28017,69.973"
           style="fill:none;stroke:#fdd600;stroke-width:4;stroke-linecap:butt;stroke-linejoin:miter;stroke-miterlimit:4;stroke-dasharray:none;stroke-opacity:1" />
        <path
           inkscape:connector-curvature="0"
           id="path1077"
           d="M 547.55525,436.87811 413.97044,258.76503"
           style="fill:none;stroke:#fdd600;stroke-width:4;stroke-linecap:butt;stroke-linejoin:miter;stroke-miterlimit:4;stroke-dasharray:none;stroke-opacity:1" />
        <path
           inkscape:connector-curvature="0"
           id="path1079"
           d="M 356.71981,436.87811 490.30462,258.76503"
           style="fill:none;stroke:#fdd600;stroke-width:4;stroke-linecap:butt;stroke-linejoin:miter;stroke-miterlimit:4;stroke-dasharray:none;stroke-opacity:1" />
        <path
           inkscape:connector-curvature="0"
           id="path1081"
           d="M 452.13753,150.62495 V 373.26629"
           style="fill:none;stroke:#fdd600;stroke-width:4;stroke-linecap:butt;stroke-linejoin:miter;stroke-miterlimit:4;stroke-dasharray:none;stroke-opacity:1" />
      </g>
    </g>
    <g
       transform="matrix(0.46666667,0,0,0.43333333,121.83994,400.32504)"
       id="g954"
       style="display:inline;opacity:1">
      <circle
         style="opacity:1;vector-effect:none;fill:#8f0b23;fill-opacity:1;stroke:#ffd800;stroke-width:5;stroke-linecap:butt;stroke-linejoin:miter;stroke-miterlimit:4;stroke-dasharray:none;stroke-dashoffset:0;stroke-opacity:1"
         id="path94-6"
         cx="190.3846"
         cy="173.79808"
         r="104.20673" />
      <circle
         style="opacity:1;vector-effect:none;fill:#d21034;fill-opacity:1;stroke:#ffd800;stroke-width:5;stroke-linecap:butt;stroke-linejoin:miter;stroke-miterlimit:4;stroke-dasharray:none;stroke-dashoffset:0;stroke-opacity:1"
         id="path94-3-7"
         cx="190.27162"
         cy="173.79808"
         r="96.09375" />
    </g>
    <path
       transform="matrix(0.46666667,0,0,0.43333333,-1.8045617e-7,340)"
       inkscape:transform-center-x="-1.2409653e-05"
       inkscape:transform-center-y="-0.69201473"
       d="m 451.85663,229.24386 3.73534,11.58226 12.16967,-0.0266 -9.86111,7.13163 3.78594,11.56583 -9.82984,-7.17468 -9.82984,7.17468 3.78593,-11.56583 -9.8611,-7.13164 12.16967,0.0266 z"
       inkscape:randomized="0"
       inkscape:rounded="1.04083e-17"
       inkscape:flatsided="false"
       sodipodi:arg2="-0.9424778"
       sodipodi:arg1="-1.5707963"
       sodipodi:r2="6.3549376"
       sodipodi:r1="16.723518"
       sodipodi:cy="245.96738"
       sodipodi:cx="451.85663"
       sodipodi:sides="5"
       id="path958"
       style="display:inline;opacity:1;vector-effect:none;fill:#8f0b23;fill-opacity:1;stroke:#ffd800;stroke-width:3;stroke-linecap:butt;stroke-linejoin:miter;stroke-miterlimit:4;stroke-dasharray:none;stroke-dashoffset:0;stroke-opacity:1"
       sodipodi:type="star" />
    <g
       transform="matrix(0.46666667,0,0,0.43333333,0.29844982,340)"
       style="display:inline;opacity:1;stroke:#ffd800;stroke-opacity:1"
       id="g991">
      <path
         style="fill:none;stroke:#ffd800;stroke-width:2;stroke-linecap:butt;stroke-linejoin:miter;stroke-miterlimit:4;stroke-dasharray:none;stroke-opacity:1"
         d="m 433.594,295.22235 h 35.24615 v 8.02285 H 433.594 Z"
         id="path960"
         inkscape:connector-curvature="0"
         sodipodi:nodetypes="ccccc" />
      <path
         style="fill:none;stroke:#ffd800;stroke-width:2;stroke-linecap:butt;stroke-linejoin:miter;stroke-miterlimit:4;stroke-dasharray:none;stroke-opacity:1"
         d="M 433.41346,298.55769 H 468.75"
         id="path962"
         inkscape:connector-curvature="0" />
      <path
         style="fill:none;stroke:#ffd800;stroke-width:2;stroke-linecap:butt;stroke-linejoin:miter;stroke-miterlimit:4;stroke-dasharray:none;stroke-opacity:1"
         d="m 437.10938,303.42548 c 0,0 -0.22283,8.03569 2.31299,10.92778 2.53582,2.8921 8.44828,4.51234 12.65095,4.48689 4.20266,-0.0255 8.40357,-1.22092 11.06645,-4.07648 2.66289,-2.85555 2.36504,-11.51848 2.36504,-11.51848 z"
         id="path965"
         inkscape:connector-curvature="0"
         sodipodi:nodetypes="czzzcc" />
      <path
         style="fill:none;stroke:#ffd800;stroke-width:2;stroke-linecap:butt;stroke-linejoin:miter;stroke-miterlimit:4;stroke-dasharray:none;stroke-opacity:1"
         d="m 437.37981,309.19471 h 27.76442"
         id="path969"
         inkscape:connector-curvature="0" />
      <path
         style="fill:none;stroke:#ffd800;stroke-width:3;stroke-linecap:butt;stroke-linejoin:miter;stroke-miterlimit:4;stroke-dasharray:none;stroke-opacity:1"
         d="m 442.74913,347.96573 h 19.05874 v 7.2028 h -19.05874 z"
         id="path975"
         inkscape:connector-curvature="0" />
      <path
         style="fill:none;stroke:#ffd800;stroke-width:3;stroke-linecap:butt;stroke-linejoin:miter;stroke-miterlimit:4;stroke-dasharray:none;stroke-opacity:1"
         d="m 447.92668,318.47957 v 29.02644"
         id="path977"
         inkscape:connector-curvature="0" />
      <path
         style="fill:none;stroke:#ffd800;stroke-width:3;stroke-linecap:butt;stroke-linejoin:miter;stroke-miterlimit:4;stroke-dasharray:none;stroke-opacity:1"
         d="m 457.57212,318.20913 v 29.83774"
         id="path979"
         inkscape:connector-curvature="0" />
      <path
         style="fill:none;stroke:#ffd800;stroke-width:3;stroke-linecap:butt;stroke-linejoin:miter;stroke-miterlimit:4;stroke-dasharray:none;stroke-opacity:1"
         d="M 453.15505,319.02043 V 341.3762"
         id="path981"
         inkscape:connector-curvature="0" />
    </g>
    <path
       inkscape:connector-curvature="0"
       id="path995"
       d="m 181.95678,467.18862 a 31.678831,32.067708 0 0 0 -2.76901,13.05078 31.678831,32.067708 0 0 0 31.67865,32.06751 31.678831,32.067708 0 0 0 31.67864,-32.06751 31.678831,32.067708 0 0 0 -2.01797,-11.20911 30.209806,26.284192 0 0 1 0.66811,5.35319 30.209806,26.284192 0 0 1 -30.21029,26.28437 30.209806,26.284192 0 0 1 -30.20937,-26.28437 30.209806,26.284192 0 0 1 1.18124,-7.19486 z"
       style="display:inline;opacity:1;vector-effect:none;fill:#ffff00;fill-opacity:1;stroke:none;stroke-width:1.29317963;stroke-linecap:butt;stroke-linejoin:miter;stroke-miterlimit:4;stroke-dasharray:none;stroke-dashoffset:0;stroke-opacity:1" />
    <path
       sodipodi:nodetypes="ccccccccccsccccsccscccc"
       inkscape:connector-curvature="0"
       id="path869"
       d="m 203.3268,466.53621 h 14.59297 c 0,0 -0.29746,-1.38368 0.59492,-2.37805 0.89239,-0.99437 -2.12182,-0.60307 -1.92293,-3.7297 -2.48721,2.47205 -1.78374,-1.16565 -1.78374,-1.16565 0,0 -0.97404,0.45419 -1.07735,1.17235 -0.35571,0.40566 0.0841,0.68465 0.0841,0.68465 0,0 -1.66578,0.77339 -1.30883,-0.0552 0.35695,-0.82864 -0.57027,-1.26274 -0.57027,-1.26274 0,0 -0.11899,-0.38669 0.53542,-0.82864 0.65441,-0.44194 0.53543,-0.44194 0.53543,-1.04961 0,-0.60767 -0.53543,-0.82864 -0.53543,-0.82864 0,0 0.53543,0.93913 -0.0595,1.21534 -0.59492,0.27621 -1.74992,-0.44979 -1.45246,0.10263 0.29747,0.55243 -1.24933,0.88389 -0.95187,1.32583 0.29746,0.44194 -1.01137,1.60204 -1.07086,0.60767 -0.0595,-0.99437 -0.53542,-1.98874 -0.53542,-1.98874 0,0 -0.4462,1.51917 -2.20121,0.96675 0.53542,0.82864 -0.95188,2.34781 -0.0595,2.29257 0.89238,-0.0552 0.20823,0.99437 -0.74366,1.32583 -0.95187,0.33146 -1.75501,0.46956 -2.08221,2.18208 -0.29747,0.11049 0.0124,1.41131 0.0124,1.41131 z"
       style="display:inline;opacity:1;fill:#ffff00;stroke:none;stroke-width:0.44969127px;stroke-linecap:butt;stroke-linejoin:miter;stroke-opacity:1" />
  </g>
</svg>
